<svg xmlns="http://www.w3.org/2000/svg" width="500" height="176.33" viewBox="0 0 132.29167 46.653981"><path d="M74.285 2.384c-.9-.015-1.861.05-2.1.21-.778.519-1.026 1.36-.75 3.159.153.987.367 4.175.478 7.086.11 2.91.276 5.89.517 6.578 0 0 .132.824.436 1.05.621.462 2.312.238 2.312.238h2.43v5.077l-2.653.037c-1.104.033-1.752-.09-2.174.043-.422.134-.703.52-.901.79-.418.571-.457 1.544-.395 2.292.136.306.587.938.983 1.157.395.219.815-.015 1.521.069.338-.033.884.044 1.493 0 .609-.043 1.282-.208 2.033-.248 1.503-.08 3.162-.139 4.465-.12 1.182.019 1.663.173 2.326.205.922.045 2.208.171 3.042-.508.665-.617.96-1.357.797-2.133-.275-1.316-.42-1.517-1.81-1.547-3.863-.084-4.253.226-4.714-.667-.52-1.004-.58-3.76-.094-4.247.194-.194 1.12-.343 2.126-.343 1.984 0 1.758-.006 2.091-2.51.261-1.96 1.579-8.456 1.93-9.57.157-.499.385-1.552.41-2.388.062-2.144-.346-1.954-6.455-1.96-4.55-.004-4.74.03-5.268-.497-.314-.314-.334-.819-.334-.976 0-.164-.84-.26-1.742-.277zm6.269 5.198 3.228.044.067.78c-.086 1.407-1.718 8.178-2.053 8.512.175.166-1.33.366-2.578.436-2.064.115-2.298.073-2.583-.46-.186-.348-.314-2.28-.314-4.76 0-3.502-.087-4.005.284-4.147.243-.093 2.107-.43 3.949-.405zm-53.37 1.284c-1.938 0-2.008.67-2.008 2.663 0 1.344-.085 4.26-.108 6.732l-.074 8.545.564.795c.025.467.844.331 1.643.314.8-.018 1.418.129 1.788-.206.444-.402.52-.93.52-3.637 0-2.083.116-3.282.34-3.506.198-.198 1.146-.341 2.257-.341 1.657 0 1.975-.085 2.357-.632.244-.347.443-1.047.443-1.555 0-.575-.3-1.24-.93-1.577-.628-.339-1.587-.35-2.54-.35-2.096 0-1.928-.408-1.928-3.83 0-1.615.104-2.424-.203-2.876-.307-.45-1.025-.543-2.122-.54zm12.654 1.605c-2.173-.017-4.049.09-4.29.33-.188.188-.57 1.016-.57 1.841 0 1.053.062 1.897.845 2.294.782.397 2.287.347 4.629.522 3.624.272 4.765.438 4.744.89-.005.121-.196.988-.422 1.925-.394 1.718-.708 2.028-.257 2.447.451.419 1.668.946 3.607-.003.12-.116.545-1.535.944-3.154 1.181-4.784.601-6.014-3.152-6.68-1.433-.254-3.905-.394-6.078-.412zm17.796.112a7.3 7.3 0 0 0-.297.002c-.4.012-.802.054-1.038.115l-.861.222-.088 3.25c-.033 2.15-.282 4.798.522 6.134.355.59 1.369.89 2.258.929.083.004.163.003.243.002.037 0 .076.002.113.001h.018l3.225-.117a69.57 69.57 0 0 1 1.712-.041c1.032-.013 1.851-.005 2.333-.017.252-.007.421-.017.48-.04.447-.171.96-.768 1.075-1.493.115-.724-.168-1.759-.581-2.078-.111-.086-.339-.111-.669-.11-.538 0-1.36.074-2.422.074h-.008c-1.458 0-2.926-.036-3.214-.19-.677-.363-1.197-2.166-1.403-4.473-.155-1.733.157-1.884-.642-2.097a2.546 2.546 0 0 0-.472-.062h-.003a5.688 5.688 0 0 0-.281-.01zm45.747.68c-.877 0-1.209.272-1.48 1.266-.273.995-.204 2.768-.28 6.22-.13 5.858-.257 5.835.316 6.237.325.227 1.132.777 1.555.777.606 0 1.18-.318 1.461-.923.282-.605.217-1.552.217-2.81 0-2.315-.326-2.148 1.123-2.148.418 0 1.142-.142 1.441-.6.43-.656.607-1.38.246-2.02-.224-.397-.98-.858-1.474-1.027-1.19-.406-.966.089-1.05-1.696-.055-1.16-.208-2.19-.48-2.705-.274-.515-.948-.57-1.595-.57zm-98.21 1.56c-1.011-.005-1.62.012-1.785.1-.421.225-.549.6-.549 1.602 0 .811.056 1.759.527 2.14.472.383 1.36.199 2.291.205 2.345.016 2.011-.091 2.011 3.073v2.75l-1.633 1.545c-.87.879-2.313 2.046-3.142 2.66-.83.612-1.617 1.392-1.748 1.731-.374.966.506 2.26 1.704 2.505 1.142.235 2.81-.6 5.843-2.925 1.964-1.505 2.028-1.527 3.082-1.047 1.027.468.924 1.436-.299 2.79-1.187 1.313-1.405 2.879-.497 3.567.588.41 1.168.596 1.82.3.65-.298 1.355-1.054 2.645-2.335l2.468-2.451 1.263.077c.785.114 1.15.49 1.578.549.604.084 1.4.005 1.837-.665.735-1.123.36-2.045-1.1-2.71-1.67-.761-1.938-1.16-1.835-2.747l.088-1.352 1.284-.11c.85-.074 1.866-.694 2.02-.848.155-.154.242-.9.193-1.656-.076-1.184-.617-1.443-1.351-1.87-.77-.449-1.597-.24-5.194.025-2.187.162-3.27.198-3.466.36-.196.162-.446 1.165-.446 1.84 0 .711.186 1.318.634 1.6.449.282.887.33 1.755.47 1.01.162 1.02.136 1.02 1.136 0 .66-.194 1.23-.517 1.523-.483.437-.615.42-1.987-.263-2.17-1.082-2.61-1.858-2.61-4.6 0-1.516.122-2.366.37-2.572.205-.17 1.414-.269 2.578-.444 1.299-.195 2.115-.175 2.333-.456.501-.647.486-2.558-.07-3.172-.426-.472-1.517-.292-6.911-.292-1.776 0-3.191-.027-4.203-.032zm90.368 1.18v.001c-.863-.006-1.818.014-2.723.011l-2.914-.01-.105 5.557c-.014 1.395.039 2.264.017 3.103l-.036 1.38c-.02.755 1.321.9 2.964.856.821-.022 2.58.07 3.599.014 1.019-.057 1.297-.262 2.298-.543 1.265-.64 1.172-1.708 1.208-5.846l.034-3.767-2.174-.605c-.535-.11-1.305-.144-2.168-.15zm17.704 2.647c-2.283-.01-2.693.55-2.693 1.87 0 1.203.179 1.642 2.833 1.692 1.325.025 2.962-.067 3.136.107.173.174.33.845.282 1.527-.086 1.205-.125 1.25-1.361 1.604-.7.2-2.14.342-2.14.342s-.75.471-.753.745l-.05 4.282c-.03 2.653-.148 4.29.177 4.506l.505.337c.242.162 1.31.387 2.002.402.692.016 1.009-.178 2.663-.178.973 0 1.158.166 1.645.14.932-.048 1.832-.405 1.745-1.52 0-.276-.088-.71-.265-.997-.178-.289-.445-.431-.69-.576-.49-.289-1.006-.135-2.228-.264-1.203-.126-2.278.132-2.258-.609l.055-2.048c.018-.67.02-.902.126-1.068.133-.211.75-.331 1.507-.473 1.917-.358 2.712-.714 3.073-2.95.334-2.066.354-5.49-.185-5.938-.232-.192-1.672-.507-3.07-.69-1.399-.185-2.756-.238-4.056-.243zm16.898.472c-.516.016-.951.178-1.257.416-.742.717-.87 2.059-1.213 3.156-.121.374-.165.865-.447 1.143-.466.42-.855.467-2.522.3-2.623-.264-3.37-.078-3.37 1.111 0 1.147.375 1.615 2.354 2.194 2.247.658 2.496.671 2.096 1.55-.248.544-.22.697-.845.69-.46-.003-1.37-.47-1.466-.542-.145-.11-.758-.31-1.449-.31-1.203 0-1.2.285-1.2 1.088 0 .353.006.7.284 1.025.277.324.826.626 1.542 1.112.933.634 1.697 1.096 1.697 1.253 0 .158-.223.792-.473 1.275-1.195 2.688-.685 4.89 1.758 3.988.272-.124.536-.252.839-.894.302-.642.68-2.076 1.229-3.695.747-2.203 1.892-5.566 2.634-7.587 2.082-5.668 2.263-6.007 1.654-6.68-.292-.323-1.003-.558-1.618-.59a2.733 2.733 0 0 0-.227-.003zm-36.315.077c.37.01.912.084 1.707.1l1.04.019.031 1.87c0 1.133-.172 2.144-.456 2.55l-.322.242c-.423.027.087-.025-.463.062-.551.087-1.826.215-2.37.088l.005-1.349-.012-1.39c.037-1.925.025-2.215.84-2.192zM40.261 24.02c-5.919-.026-6.362.22-6.354 1.611.01 1.616 1.003 2.099 4.32 2.099 2.245 0 2.556-.16 2.814.322.162.302.157 2.146.157 3.875 0 2.765.023 3.166.522 3.666.625.625 2.228.765 3.144.274.5-.267.595-.49.595-3.81 0-3.069-.11-3.726.267-3.87.247-.096 1.328-.082 2.624-.082 2.697 0 3.428-.395 3.366-2.05-.036-.96-.165-1.639-1.254-1.889-1.09-.25-2.957-.072-7.314-.121a433.687 433.687 0 0 0-2.887-.025zm20.214 1.18-5.608.046-.315 1.02c.005.925.098 1.865.669 2.131.215.1.555.134 1.01.14.746.013 1.808-.05 3.145-.013h.022l6.926.207.003-.008.285.009-.016-2.07.016-1.461h-.211zm38.298.613c-.687-.033-1.814.494-2 .977-.186.485.192 1.802.656 2.097.093.059.399.205.773.263.374.058.817.027 1.258.029 2.027.005 2.682.172 2.682.965 0 .296-.1.555-.415.634-.314.078-.842-.025-1.92.065-.638.053-1.647.035-2.17.116-.524.081-.692.355-.794.44-.248.205-.357 2.172-.29 3.834.067 1.661-.134 3.223.112 3.47.53.384 6.568.332 8.062.258.594-.2.9-.7.9-1.372 0-.677-.382-1.626-.906-1.949-.262-.161-1.083-.235-1.757-.32-.674-.084-1.499-.013-2.14-.07-.252-.023-1.376-.214-1.172-.61.43-.834 1.9-.503 2.796-.644 1.649-.043 2.247.09 2.506-.264.594-.812 1.25-3.62 1.049-4.956-.154-1.03-.297-1.626-.777-1.998-.48-.37-1.299-.516-2.807-.644-1.464-.124-3.109-.165-3.383-.27a.845.845 0 0 0-.263-.05zm-18.967 4.61v.001c-.157.01-.318.054-.478.144-.58.324-1.057.763-1.316 1.813-.74 3.01-1.138 3.609-3.887 5.863-1.446 1.185-2.801 2.514-3.012 2.954-.506 1.055-.217 2.078.727 2.572.635.333 1.337.449 2.425-.093 1.089-.54 2.562-1.739 4.74-3.487 1.51-1.211 1.935-1.122 4.317-.285.892.314 1.939.727 2.782.77.843.043 1.528-.24 1.783-.495.555-.555.462-2.334-.183-2.894-.315-.273-1.957-.86-3.538-1.361-1.582-.502-3.024-.747-3.093-.936-.07-.188.023-1.347-.017-2.353-.045-1.098.082-1.327-.168-1.693a1.277 1.277 0 0 0-1.082-.52zm-20.492.446c-1.863-.03-2.178.874-2.945 4.698-.265 1.319-.288 2.35-.312 2.587l-.006-.005c.002.013.003.01.005.02a.934.934 0 0 0-.027-.02c.014.09.02.085.027.021.009.046.015.05.02.015.093.073.495.383.83.365.026 0 .052.002.077-.002.193.015.437.023.726.026h.001c.288.003.62.002.985-.001.731-.006 1.6-.02 2.53-.02.425 0 .76.005 1.116.009.187.002.417.002.586.005.5.007.93.013 1.3.012.742-.002 1.253-.035 1.644-.16.779-.249 1.094-.861 1.094-1.7 0-.688-.102-1.236-.55-1.458-.226-.11-.537-.14-.967-.142h-.001c-.433-.002-.986.025-1.695.025-.716 0-1.221.105-1.623.131a2.18 2.18 0 0 1-.263.003h-.001a1.048 1.048 0 0 1-.726-.342c-.43-.438-.117-.568-.11-1.836 0 0 .23-.844.233-1.175.002-.33-.405-.946-.405-.946l-1.127-.092a7.331 7.331 0 0 0-.402-.018h-.014zm-30.809.531a17.215 17.215 0 0 0-.683 0c-2.364.05-4.886.572-6.023 1.466-.4.316-.813.573-.917.573-.388 0-1.353 1.135-2.328 3.068-.594 1.176-.699 3.516-.272 5.039.63 2.25 3.387 4.279 6.43 4.92.703.149 1.597.225 1.988.17.39-.054 1.378-.18 2.194-.281 1.164-.144 1.513-.365 2.449-1.196 1.106-.982 1.201-1.365 1.308-2.927.193-2.818-1.538-5.033-3.868-5.66-2.01-.542-3.293.446-3.457 1.858-.058.5.808.365 1.46.607 1.69.629 1.765 1.016 1.765 1.87 0 .772-.56 1.305-1.177 1.62-.616.314-1.563.228-2.516-.058-1.565-.469-2.125-1.48-2.125-3.491 0-1.461.197-2.085 1.194-2.812l1.012-.738h3.399c3.009 0 3.257.023 3.92-.498.964-.759.973-2.159.063-2.736-.804-.51-2.238-.764-3.816-.794z"/><path fill="#E60A78" d="M70.784 41.388c-.944-.495-1.233-1.518-.726-2.573.21-.439 1.565-1.768 3.01-2.953 2.75-2.254 3.148-2.854 3.888-5.863.259-1.05.737-1.49 1.316-1.814.639-.357 1.31.01 1.56.376s.123.595.168 1.693c.04 1.006-.052 2.165.017 2.353.07.189 1.511.434 3.093.936 1.581.5 3.224 1.089 3.538 1.361.646.56.738 2.34.183 2.894-.256.256-.94.538-1.783.495-.843-.043-1.89-.456-2.782-.77-2.382-.837-2.807-.926-4.316.285-2.178 1.748-3.652 2.946-4.74 3.487-1.088.542-1.79.426-2.426.093zm.04-17.117c.198-.27.479-.658.901-.791.422-.134 1.07-.01 2.174-.043l2.654-.037v-5.077h-2.431s-1.69.224-2.312-.239c-.303-.226-.436-1.049-.436-1.049-.24-.688-.407-3.668-.517-6.578-.11-2.911-.325-6.1-.477-7.087-.277-1.798-.03-2.64.749-3.159.477-.319 3.842-.26 3.842.067 0 .157.02.663.334.977.528.528.719.493 5.268.497 6.11.006 6.517-.184 6.455 1.96-.025.836-.253 1.89-.41 2.389-.351 1.113-1.669 7.609-1.93 9.568-.333 2.505-.106 2.51-2.09 2.51-1.006 0-1.933.15-2.127.344-.486.486-.426 3.244.094 4.247.461.893.85.583 4.713.667 1.39.03 1.536.23 1.811 1.546.162.776-.132 1.517-.796 2.133-.835.68-2.12.554-3.042.51-.664-.033-1.144-.188-2.327-.205-1.303-.02-2.962.039-4.465.119-.751.04-1.424.204-2.033.248-.61.044-1.154-.033-1.493 0-.706-.084-1.125.15-1.52-.07-.397-.219-.848-.85-.984-1.156-.062-.748-.023-1.72.395-2.291zm9.916-9.735c.334-.335 1.968-7.106 2.053-8.513l-.066-.779-3.23-.043c-1.84-.025-3.705.31-3.948.404-.37.142-.283.645-.283 4.146 0 2.48.127 4.413.313 4.761.285.533.519.574 2.582.46 1.248-.07 2.753-.27 2.579-.436z"/><path fill="#F7E61A" d="M26.128 6.483c-1.937.002-2.008.671-2.008 2.663 0 1.344-.085 4.26-.108 6.733l-.074 8.545.564.795c.025.467.844.33 1.644.313.799-.017 1.417.13 1.787-.205.444-.402.52-.93.52-3.636 0-2.084.116-3.283.34-3.508.198-.197 1.146-.34 2.257-.34 1.658 0 1.975-.086 2.358-.632.243-.347.442-1.047.442-1.555 0-.575-.3-1.24-.929-1.577-.629-.338-1.588-.35-2.541-.35-2.096 0-1.927-.408-1.927-3.83 0-1.615.103-2.425-.204-2.876-.307-.451-1.025-.544-2.121-.54zM38.782 8.09c-2.173-.017-4.048.09-4.29.33-.187.188-.569 1.016-.569 1.84 0 1.054.06 1.898.844 2.295.782.397 2.287.347 4.628.522 3.625.272 4.766.438 4.745.89-.005.122-.195.987-.421 1.925-.394 1.718-.709 2.029-.258 2.447.451.419 1.668.946 3.607-.003.12-.116.545-1.536.945-3.155 1.18-4.783.6-6.013-3.153-6.678-1.433-.255-3.904-.396-6.078-.413zm17.499.115c-.4.01-.801.053-1.038.114l-.862.222-.087 3.25c-.034 2.149-.282 4.798.522 6.135.402.668 1.655.965 2.61.93l3.225-.116c2.46-.092 4.296-.01 4.525-.098.448-.172.96-.769 1.075-1.493.115-.725-.168-1.76-.581-2.078-.293-.226-1.382-.036-3.078-.036-1.464 0-2.945-.036-3.235-.191-.677-.362-1.197-2.164-1.403-4.472-.155-1.732.157-1.884-.642-2.097-.232-.062-.63-.081-1.031-.07zM4.116 10.44c-1.012-.005-1.621.011-1.786.099-.42.225-.55.6-.55 1.603 0 .81.057 1.759.529 2.14.471.383 1.358.198 2.29.205 2.344.015 2.012-.092 2.012 3.073v2.75l-1.634 1.544c-.87.88-2.312 2.047-3.142 2.66-.83.613-1.617 1.393-1.748 1.733-.374.965.506 2.258 1.704 2.504 1.142.235 2.811-.6 5.844-2.925 1.964-1.506 2.028-1.527 3.081-1.047 1.028.468.924 1.436-.299 2.79-1.186 1.313-1.405 2.878-.497 3.566.588.41 1.168.596 1.82.3.65-.297 1.356-1.053 2.646-2.335l2.468-2.45 1.261.077c.786.114 1.151.489 1.58.548.604.084 1.4.006 1.836-.665.735-1.122.361-2.044-1.1-2.71-1.67-.76-1.937-1.16-1.834-2.747l.087-1.35 1.284-.112c.85-.074 1.866-.693 2.02-.848.155-.154.242-.899.193-1.655-.076-1.184-.617-1.444-1.35-1.87-.771-.45-1.597-.24-5.194.025-2.188.161-3.272.198-3.467.36-.195.161-.446 1.165-.446 1.84 0 .711.186 1.318.635 1.6.448.282.886.33 1.754.47 1.01.162 1.02.135 1.02 1.136 0 .66-.194 1.231-.517 1.524-.483.436-.615.419-1.987-.265-2.17-1.081-2.61-1.856-2.61-4.599 0-1.516.123-2.367.371-2.573.204-.169 1.414-.268 2.577-.443 1.299-.195 2.115-.176 2.333-.457.502-.646.487-2.557-.069-3.171-.427-.472-1.518-.292-6.912-.292-1.776 0-3.19-.027-4.203-.033zm35.09 11.197c-5.92-.026-6.363.219-6.354 1.611.009 1.615 1.002 2.098 4.32 2.098 2.245 0 2.555-.159 2.813.322.161.302.157 2.147.157 3.876 0 2.764.023 3.166.523 3.666.624.624 2.227.764 3.143.274.5-.267.595-.49.595-3.81 0-3.069-.11-3.726.267-3.87.247-.095 1.328-.082 2.624-.082 2.698 0 3.428-.395 3.366-2.05-.036-.96-.164-1.639-1.253-1.889-1.09-.25-2.958-.072-7.315-.12-1.084-.013-2.041-.022-2.887-.026zm20.213 1.18-5.607.046-.315 1.02c.004.925.097 1.865.668 2.13.57.266 2.013.066 4.155.128l7.215.207-.017-2.069.017-1.461zm-1.16 5.669c-1.863-.03-2.179.873-2.946 4.698-.267 1.332-.29 2.38-.313 2.603.07.055.553.446.91.377.762.062 2.379.005 4.237.005 2.626 0 3.868.116 4.646-.133.779-.248 1.094-.861 1.094-1.7 0-.688-.101-1.236-.55-1.458-.45-.222-1.248-.118-2.64-.118-1.434 0-2.019.421-2.636-.208-.429-.437-.116-.568-.11-1.835 0 0 .231-.844.233-1.174.002-.331-.405-.947-.405-.947l-1.127-.092a7.328 7.328 0 0 0-.394-.018zM55 35.787l-.026-.02c.013.09.02.085.026.02zM26.766 29.02c-2.364.049-4.886.571-6.022 1.465-.401.315-.814.573-.918.573-.388 0-1.352 1.135-2.327 3.067-.594 1.177-.7 3.517-.273 5.04.63 2.25 3.387 4.278 6.43 4.92.702.148 1.597.225 1.988.17.39-.054 1.378-.181 2.194-.282 1.165-.143 1.512-.365 2.449-1.196 1.106-.981 1.202-1.364 1.309-2.926.193-2.818-1.54-5.033-3.87-5.66-2.009-.542-3.292.446-3.456 1.858-.058.5.808.365 1.46.607 1.69.628 1.766 1.015 1.766 1.869 0 .772-.56 1.306-1.177 1.62-.617.315-1.563.228-2.517-.057-1.565-.47-2.125-1.481-2.125-3.491 0-1.462.198-2.085 1.194-2.812l1.012-.738h3.399c3.008 0 3.257.023 3.92-.498.964-.759.973-2.159.063-2.736-.919-.583-2.66-.831-4.5-.793z"/><path fill="#5DC8F2" d="M95.61 36.32c-.247-.247-.046-1.808-.113-3.47-.067-1.661.042-3.628.29-3.834.102-.084.27-.358.793-.44.524-.08 1.534-.062 2.17-.115 1.08-.09 1.608.013 1.922-.065.314-.079.414-.338.414-.634 0-.793-.654-.96-2.682-.965-.44-.002-.883.029-1.258-.03a2.297 2.297 0 0 1-.772-.262c-.465-.296-.843-1.612-.656-2.097.212-.552 1.653-1.161 2.262-.927.275.106 1.92.146 3.383.27 1.509.128 2.327.274 2.807.645.48.372.623.968.777 1.997.2 1.336-.455 4.145-1.049 4.957-.259.355-.857.22-2.505.264-.897.14-2.366-.19-2.797.644-.204.396.92.587 1.172.61.641.056 1.466-.015 2.14.07.674.085 1.495.159 1.757.32.524.323.906 1.272.906 1.95 0 .672-.306 1.171-.9 1.37-1.495.075-7.531.127-8.061-.258zm27.207-6.12c.249-.482.472-1.116.472-1.274 0-.157-.764-.62-1.697-1.253-.716-.486-1.265-.788-1.542-1.113-.278-.324-.283-.67-.283-1.024 0-.803-.003-1.089 1.2-1.089.69 0 1.302.2 1.448.31.096.073 1.006.54 1.466.544.626.006.598-.148.845-.69.4-.88.152-.893-2.095-1.55-1.98-.58-2.355-1.049-2.355-2.195 0-1.19.748-1.375 3.37-1.112 1.667.168 2.056.122 2.522-.3.282-.277.326-.768.447-1.142.344-1.097.47-2.439 1.213-3.155.35-.273.868-.445 1.483-.414.615.032 1.327.267 1.618.59.61.673.429 1.012-1.653 6.68-.742 2.02-1.887 5.384-2.634 7.587-.549 1.619-.927 3.052-1.23 3.695-.302.642-.566.77-.838.894-2.443.903-2.953-1.3-1.757-3.988zm-11.2.743c-.325-.217-.207-1.853-.176-4.505l.05-4.284c.003-.273.753-.744.753-.744s1.44-.143 2.14-.343c1.236-.353 1.275-.398 1.36-1.603.05-.682-.108-1.354-.281-1.527-.174-.174-1.811-.083-3.136-.108-2.654-.05-2.833-.488-2.833-1.692 0-1.32.41-1.88 2.693-1.87 1.3.006 2.657.059 4.055.243 1.399.184 2.839.498 3.07.69.54.448.52 3.873.186 5.939-.362 2.236-1.156 2.592-3.073 2.95-.757.142-1.373.261-1.507.472-.105.166-.108.398-.126 1.068l-.055 2.05c-.02.74 1.055.482 2.258.608 1.222.129 1.737-.025 2.228.264.245.144.512.287.69.576.177.288.265.721.265.998.087 1.114-.813 1.47-1.745 1.52-.487.025-.672-.14-1.645-.14-1.654 0-1.97.192-2.663.177-.692-.016-1.76-.24-2.002-.402zm-10.736-8.34c-.574-.402-.446-.378-.316-6.235.076-3.453.007-5.226.28-6.22.271-.996.603-1.267 1.48-1.267.647 0 1.321.056 1.594.57.273.516.426 1.545.48 2.706.085 1.784-.138 1.29 1.051 1.695.494.169 1.25.631 1.474 1.028.362.64.185 1.364-.245 2.02-.3.458-1.024.6-1.442.6-1.449 0-1.123-.167-1.123 2.147 0 1.258.065 2.206-.216 2.81a1.583 1.583 0 0 1-1.462.924c-.423 0-1.23-.55-1.555-.778zm-12.14-5.423.105-5.557 2.914.01c1.81.007 3.821-.082 4.891.14l2.174.604-.033 3.767c-.037 4.138.056 5.206-1.21 5.846-1 .28-1.278.486-2.297.543-1.019.056-2.778-.036-3.6-.014-1.642.044-2.982-.1-2.963-.856l.036-1.38c.022-.838-.031-1.708-.017-3.103zm6.351 2.175c.284-.405.456-1.416.456-2.549l-.032-1.87-1.04-.02c-2.542-.047-2.491-.707-2.546 2.094l.013 1.389-.006 1.349c.545.127 1.819-.001 2.37-.088.55-.087.04-.035.463-.063z"/></svg>